<svg xmlns="http://www.w3.org/2000/svg" viewBox="0 0 64 64" fill="none">
  <rect width="64" height="64" rx="18" fill="#0F395B"/>
  <path d="M16 21.5C16 18.4624 18.4624 16 21.5 16H42.5C45.5376 16 48 18.4624 48 21.5V42.5C48 45.5376 45.5376 48 42.5 48H21.5C18.4624 48 16 45.5376 16 42.5V21.5Z" fill="#F5FBFC"/>
  <path d="M22 24H42C42.5523 24 43 24.4477 43 25V27.0738C43 27.3883 42.8518 27.6844 42.6 27.873L32.6 35.3576C32.2444 35.6237 31.7556 35.6237 31.4 35.3576L21.4 27.873C21.1482 27.6844 21 27.3883 21 27.0738V25C21 24.4477 21.4477 24 22 24Z" fill="#0E7490"/>
  <path d="M21 29.5L29.5656 35.8092C31.0059 36.8703 32.9941 36.8703 34.4344 35.8092L43 29.5V39C43 40.1046 42.1046 41 41 41H23C21.8954 41 21 40.1046 21 39V29.5Z" fill="#D4EEF2"/>
</svg>
